<svg version="1" xmlns="http://www.w3.org/2000/svg" width="512" height="512" viewBox="0 0 384.000000 384.000000"><path d="M0 192v192h384V0H0v192zm320-73.5V146H64V91h256v27.5zm0 73V219H64v-55h256v27.5zm0 73V292H64v-55h256v27.5z"/><path d="M284.7 107.1c-10.7 8-5.4 24.9 7.8 24.9 8.1 0 13.5-5.6 13.5-14 0-4.7-.4-5.6-3.9-9.1-3.5-3.6-4.3-3.9-9.2-3.9-3.9.1-6.2.7-8.2 2.1zM82 118.5v9.5h147v-19H82v9.5zM285.3 180c-8.2 5-8.4 17.2-.4 22.9 2 1.5 4.4 2.1 8.1 2.1 4.7 0 5.6-.4 9.1-3.9 3.6-3.6 3.9-4.3 3.9-9.6s-.3-6-3.9-9.6c-3.4-3.5-4.4-3.9-8.7-3.9-3.1 0-6.1.7-8.1 2zM82 191.5v9.5h147v-19H82v9.5zM285.3 253c-8.2 5-8.4 17.2-.4 22.9 2 1.5 4.4 2.1 8.1 2.1 4.7 0 5.6-.4 9.1-3.9s3.9-4.4 3.9-9.1c0-5.9-2.3-10.1-7-12.5-4-2.1-9.9-1.9-13.7.5zM82 264.5v9.5h147v-19H82v9.5z"/></svg>